<svg width="65" height="71" viewBox="0 0 65 71" fill="none" xmlns="http://www.w3.org/2000/svg">
<g id="Frame 485">
<g id="Group">
<path id="Vector" d="M11.9736 1.89893C11.9736 0.932437 12.7394 0.148926 13.6842 0.148926C14.6289 0.148926 15.3947 0.932437 15.3947 1.89893V12.3989C15.3947 13.3655 14.6289 14.1489 13.6842 14.1489C12.7394 14.1489 11.9736 13.3655 11.9736 12.3989V1.89893Z" fill="white"/>
<path id="Vector_2" d="M39.3418 1.89893C39.3418 0.932437 40.1076 0.148926 41.0523 0.148926C41.997 0.148926 42.7628 0.932437 42.7628 1.89893V12.3989C42.7628 13.3655 41.997 14.1489 41.0523 14.1489C40.1076 14.1489 39.3418 13.3655 39.3418 12.3989V1.89893Z" fill="white"/>
<g id="Group_2">
<path id="Vector_3" fill-rule="evenodd" clip-rule="evenodd" d="M15.3948 33.3991H11.9738V36.8991H15.3948V33.3991ZM11.9738 29.8991C10.0843 29.8991 8.55273 31.466 8.55273 33.3991V36.8991C8.55273 38.8321 10.0843 40.3991 11.9738 40.3991H15.3948C17.2843 40.3991 18.8159 38.8321 18.8159 36.8991V33.3991C18.8159 31.466 17.2843 29.8991 15.3948 29.8991H11.9738Z" fill="white"/>
<path id="Vector_4" fill-rule="evenodd" clip-rule="evenodd" d="M29.0786 33.3991H25.6576V36.8991H29.0786V33.3991ZM25.6576 29.8991C23.7682 29.8991 22.2366 31.466 22.2366 33.3991V36.8991C22.2366 38.8321 23.7682 40.3991 25.6576 40.3991H29.0786C30.9681 40.3991 32.4997 38.8321 32.4997 36.8991V33.3991C32.4997 31.466 30.9681 29.8991 29.0786 29.8991H25.6576Z" fill="white"/>
<path id="Vector_5" fill-rule="evenodd" clip-rule="evenodd" d="M42.7627 33.3991H39.3417V36.8991H42.7627V33.3991ZM39.3417 29.8991C37.4523 29.8991 35.9207 31.466 35.9207 33.3991V36.8991C35.9207 38.8321 37.4523 40.3991 39.3417 40.3991H42.7627C44.6522 40.3991 46.1838 38.8321 46.1838 36.8991V33.3991C46.1838 31.466 44.6522 29.8991 42.7627 29.8991H39.3417Z" fill="white"/>
<path id="Vector_6" fill-rule="evenodd" clip-rule="evenodd" d="M15.3948 47.399H11.9738V50.899H15.3948V47.399ZM11.9738 43.899C10.0843 43.899 8.55273 45.4659 8.55273 47.399V50.899C8.55273 52.8321 10.0843 54.399 11.9738 54.399H15.3948C17.2843 54.399 18.8159 52.8321 18.8159 50.899V47.399C18.8159 45.4659 17.2843 43.899 15.3948 43.899H11.9738Z" fill="white"/>
<path id="Vector_7" fill-rule="evenodd" clip-rule="evenodd" d="M29.0786 47.399H25.6576V50.899H29.0786V47.399ZM25.6576 43.899C23.7682 43.899 22.2366 45.4659 22.2366 47.399V50.899C22.2366 52.8321 23.7682 54.399 25.6576 54.399H29.0786C30.9681 54.399 32.4997 52.8321 32.4997 50.899V47.399C32.4997 45.4659 30.9681 43.899 29.0786 43.899H25.6576Z" fill="white"/>
<path id="Vector_8" fill-rule="evenodd" clip-rule="evenodd" d="M6.84208 10.6493H47.8946C49.784 10.6493 51.3156 12.2163 51.3156 14.1493V42.1494C52.4969 42.1494 53.6433 42.3025 54.7366 42.5904V14.1493C54.7366 10.2833 51.6733 7.14932 47.8946 7.14932H6.84208C3.0633 7.14932 0 10.2833 0 14.1493V56.1494C0 60.0153 3.0633 63.1494 6.84208 63.1494H39.4622C38.8497 62.0661 38.375 60.891 38.0625 59.6494H6.84208C4.95269 59.6494 3.42104 58.0824 3.42104 56.1494V14.1493C3.42104 12.2163 4.95269 10.6493 6.84208 10.6493Z" fill="white"/>
<path id="Vector_9" fill-rule="evenodd" clip-rule="evenodd" d="M53.0258 26.3987H1.71021V22.8987H53.0258V26.3987Z" fill="white"/>
<path id="Vector_10" fill-rule="evenodd" clip-rule="evenodd" d="M51.3157 66.6491C56.9839 66.6491 61.5789 61.9481 61.5789 56.1491C61.5789 50.3502 56.9839 45.6491 51.3157 45.6491C45.6476 45.6491 41.0526 50.3502 41.0526 56.1491C41.0526 61.9481 45.6476 66.6491 51.3157 66.6491ZM51.3157 70.1492C58.8733 70.1492 64.9999 63.8812 64.9999 56.1491C64.9999 48.4171 58.8733 42.1491 51.3157 42.1491C43.7582 42.1491 37.6316 48.4171 37.6316 56.1491C37.6316 63.8812 43.7582 70.1492 51.3157 70.1492Z" fill="white"/>
</g>
</g>
<g id="&#240;&#159;&#166;&#134; icon &#34;tick&#34;">
<path id="Vector_11" d="M44.9998 56.0904L49.3267 60.5172L57.4997 52.1555" stroke="#FFECEC" stroke-width="1.15385" stroke-linecap="square"/>
</g>
</g>
</svg>
