<svg width="30" height="30" viewBox="0 0 30 30" fill="none" xmlns="http://www.w3.org/2000/svg">
<g id="012-medicine">
<g id="Group">
<g id="Group_2">
<path id="Vector" d="M21.9679 0H8.06635C7.49758 0 7.03662 0.460957 7.03662 1.02973V6.07547C7.03662 6.64424 7.49758 7.1052 8.06635 7.1052H21.9679C22.5367 7.1052 22.9977 6.64424 22.9977 6.07547V1.02973C22.9977 0.460957 22.5367 0 21.9679 0ZM20.9382 5.04574H9.09607V2.05951H20.9382V5.04574H20.9382Z" fill="#10217D"/>
</g>
</g>
<g id="Group_3">
<g id="Group_4">
<path id="Vector_2" d="M20.4919 6.11002H18.4324V10.8468H20.4919V6.11002Z" fill="#10217D"/>
</g>
</g>
<g id="Group_5">
<g id="Group_6">
<path id="Vector_3" d="M11.5676 6.11002H9.50806V10.8468H11.5676V6.11002Z" fill="#10217D"/>
</g>
</g>
<g id="Group_7">
<g id="Group_8">
<path id="Vector_4" d="M22.4827 9.81688H7.51705C6.5707 9.81688 5.80078 10.5868 5.80078 11.5331V28.2837C5.80078 29.23 6.5707 30 7.51705 30H22.4827C23.4291 30 24.199 29.23 24.199 28.2837V11.5331C24.199 10.5868 23.4291 9.81688 22.4827 9.81688ZM22.1395 27.9405H7.86029V11.8764H22.1395V27.9405Z" fill="#10217D"/>
</g>
</g>
<g id="Group_9">
<g id="Group_10">
<path id="Vector_5" d="M14.9999 15.2059C14.4312 15.2059 13.9702 15.6668 13.9702 16.2356V23.5812C13.9702 24.1499 14.4312 24.6109 14.9999 24.6109C15.5687 24.6109 16.0297 24.1499 16.0297 23.5812V16.2356C16.0297 15.6668 15.5687 15.2059 14.9999 15.2059Z" fill="#10217D"/>
</g>
</g>
<g id="Group_11">
<g id="Group_12">
<path id="Vector_6" d="M18.6729 18.8787H11.3273C10.7586 18.8787 10.2976 19.3397 10.2976 19.9085C10.2976 20.4772 10.7586 20.9382 11.3273 20.9382H18.6729C19.242 20.9382 19.7026 20.4772 19.7026 19.9085C19.7026 19.3397 19.2416 18.8787 18.6729 18.8787Z" fill="#10217D"/>
</g>
</g>
</g>
</svg>
